# xmcd
#
# Track frame offsets:
#	150
#	13530
#	33375
#	48277
#	66135
#	87577
#	105807
#	121157
#	134547
#	151552
#	169917
#	183580
#	199172
#	216835
#
# Disc length: 3067 seconds
#
# Revision: 1
# Processed by: cddbd v1.4PL0 Copyright (c) Steve Scherf et al.
# Submitted via: audiograbber 1.82.01
#
DISCID=b60bf90e
DTITLE=BlueTales - Blues
DYEAR=1999
DGENRE=Blues
TTITLE0=Move on
TTITLE1=Easy way out
TTITLE2=The higher you climb
TTITLE3=After all these years
TTITLE4=Moon over Frankfurt
TTITLE5=Belet Huen
TTITLE6=There`s a time
TTITLE7=Come home
TTITLE8=This Heart
TTITLE9=Waitin` for someone
TTITLE10=Ride with me
TTITLE11=Mr. Fake
TTITLE12=Straight out
TTITLE13=Goin` to the city
EXTD=
EXTT0=
EXTT1=
EXTT2=
EXTT3=
EXTT4=
EXTT5=
EXTT6=
EXTT7=
EXTT8=
EXTT9=
EXTT10=
EXTT11=
EXTT12=
EXTT13=
PLAYORDER=
